<svg width="121" height="30" fill="none" xmlns="http://www.w3.org/2000/svg"><path fill-rule="evenodd" clip-rule="evenodd" d="M17.747.17c.182 1.615-.475 3.206-1.434 4.376-1.001 1.151-2.602 2.032-4.162 1.919-.204-1.554.586-3.207 1.47-4.215 1-1.144 2.737-2.02 4.126-2.08Zm5.106 9.316c-.174.101-3.06 1.78-3.027 5.203.036 4.135 3.709 5.501 3.753 5.516-.021.097-.575 1.973-1.952 3.878-1.15 1.677-2.356 3.316-4.27 3.346-.91.02-1.525-.234-2.165-.5-.668-.278-1.364-.567-2.453-.567-1.154 0-1.881.299-2.582.586-.607.249-1.193.49-2.02.523-1.824.065-3.217-1.79-4.409-3.453-2.383-3.393-4.238-9.563-1.75-13.761 1.205-2.06 3.402-3.386 5.751-3.42 1.035-.022 2.027.367 2.897.708.665.26 1.258.493 1.744.493.427 0 1.004-.223 1.676-.483 1.06-.41 2.357-.912 3.678-.777.903.026 3.474.348 5.132 2.706l-.003.002Zm16.544-2.812c.769-.598 1.154-1.489 1.154-2.672 0-1.053-.357-1.862-1.068-2.427-.635-.5-1.576-.751-2.826-.751a13.3 13.3 0 0 0-1.969.137v6.462c.466.052 1.022.079 1.673.079 1.31 0 2.323-.277 3.036-.828Zm-.713-4.407c.441.41.662.998.662 1.765 0 .858-.24 1.511-.716 1.96-.476.447-1.151.671-2.026.671-.374 0-.632-.009-.773-.029V1.721c.255-.046.561-.068.921-.068.848 0 1.492.205 1.932.614Zm8.259 2.768c0 .73-.226 1.326-.677 1.794-.474.482-1.101.722-1.885.722-.755 0-1.356-.23-1.804-.693-.447-.46-.671-1.043-.671-1.744 0-.734.23-1.336.693-1.803.462-.467 1.084-.701 1.868-.701.754 0 1.361.23 1.82.691.437.448.656 1.027.656 1.734Zm-1.186.035c0-.437-.102-.812-.306-1.125a1.146 1.146 0 0 0-1.026-.567c-.46 0-.808.19-1.048.567-.206.313-.307.694-.307 1.144 0 .437.103.812.307 1.124.247.378.592.567 1.037.567.436 0 .779-.192 1.026-.577.211-.318.317-.696.317-1.133Zm9.756-2.363Zm-1.122 0h1.122l-1.609 4.736h-1.047l-.666-2.057a14.401 14.401 0 0 1-.414-1.53h-.02c-.1.52-.237 1.03-.414 1.53l-.708 2.057h-1.06l-1.513-4.737h1.175l.582 2.252c.14.533.256 1.04.349 1.52h.02c.086-.395.226-.9.425-1.51l.73-2.26h.931l.7 2.212c.169.54.306 1.06.412 1.56h.032a13.89 13.89 0 0 1 .349-1.56l.624-2.213Zm7.05 4.736h-1.144V4.73c0-.836-.344-1.254-1.036-1.254-.34 0-.613.114-.826.345-.21.23-.317.501-.317.812v2.81h-1.144V4.06c0-.416-.014-.868-.041-1.356h1.005l.053.74h.032c.133-.23.331-.42.592-.571.31-.177.657-.266 1.037-.266.48 0 .879.142 1.196.429.395.35.593.874.593 1.57v2.837Zm2.01 0h1.143V.533H63.45v6.91Zm7.874-2.407c0 .728-.226 1.325-.678 1.793-.473.482-1.102.722-1.884.722-.756 0-1.357-.23-1.804-.693-.447-.46-.671-1.043-.671-1.744 0-.734.23-1.336.693-1.803.462-.467 1.084-.701 1.866-.701.756 0 1.362.23 1.822.691.437.448.656 1.027.656 1.734Zm-1.187.034c0-.437-.103-.812-.307-1.125a1.145 1.145 0 0 0-1.024-.567c-.46 0-.81.19-1.049.567-.205.313-.306.694-.306 1.144 0 .437.103.812.306 1.124.248.378.593.567 1.038.567.436 0 .778-.192 1.024-.577.213-.318.318-.696.318-1.133Zm5.694 2.373h1.026a6.824 6.824 0 0 1-.074-1.13V4.57c0-1.306-.674-1.96-2.018-1.96-.696 0-1.286.137-1.764.41l.232.691c.386-.233.834-.35 1.34-.35.713 0 1.069.31 1.069.935v.088c-.953-.007-1.692.143-2.218.449-.527.305-.789.746-.789 1.325 0 .383.134.705.403.965.296.285.688.429 1.174.429.65 0 1.15-.218 1.502-.653h.032l.085.545Zm-.16-2.358v.73a.824.824 0 0 1-.02.185.894.894 0 0 1-.395.561 1.22 1.22 0 0 1-.7.219.841.841 0 0 1-.558-.185c-.147-.123-.22-.308-.22-.556 0-.656.631-.974 1.892-.954Zm7.683 2.358H82.34l-.053-.76h-.032c-.324.578-.876.868-1.651.868-.62 0-1.136-.224-1.545-.672-.41-.449-.613-1.03-.613-1.745 0-.767.221-1.388.666-1.862.431-.442.96-.663 1.588-.663.69 0 1.173.214 1.448.643h.022V.532h1.145v5.635c0 .461.013.886.04 1.276ZM82.17 5.446v-.79c0-.137-.01-.248-.032-.332a1.185 1.185 0 0 0-.413-.638 1.182 1.182 0 0 0-.765-.258c-.426 0-.76.155-1.006.468-.243.312-.366.711-.366 1.199 0 .468.117.848.351 1.14.248.312.582.468 1 .468.375 0 .675-.13.903-.39.22-.24.328-.53.328-.867Zm10.286 1.383c.451-.468.677-1.065.677-1.793 0-.708-.219-1.287-.655-1.735-.459-.461-1.066-.691-1.82-.691-.784 0-1.406.234-1.869.701-.463.467-.693 1.07-.693 1.803 0 .701.224 1.283.671 1.744.45.463 1.05.693 1.805.693.784 0 1.41-.24 1.884-.722Zm-.814-2.884c.204.313.306.688.306 1.125 0 .437-.106.815-.317 1.133-.246.385-.59.577-1.027.577-.445 0-.79-.189-1.037-.567-.204-.312-.307-.687-.307-1.124 0-.45.102-.831.307-1.144.241-.378.59-.567 1.048-.567.445 0 .786.19 1.027.567Zm7.639 3.498h-1.142V4.73c0-.836-.345-1.254-1.038-1.254-.34 0-.613.114-.825.345-.211.23-.317.501-.317.812v2.81h-1.145V4.06c0-.416-.013-.868-.04-1.356h1.004l.053.74h.032a1.6 1.6 0 0 1 .592-.571 2.062 2.062 0 0 1 1.038-.266c.479 0 .878.142 1.195.429.397.35.593.874.593 1.57v2.837Zm6.435-3.948h1.258v-.79h-1.259V1.526l-1.12.312v.868h-.752v.789h.752v2.389c0 .598.126 1.024.382 1.277.254.253.605.38 1.057.38.365 0 .662-.04.888-.118l-.029-.799a2.19 2.19 0 0 1-.51.05c-.443 0-.667-.293-.667-.878V3.495Zm7.312 3.948h-1.144V4.75c0-.85-.345-1.274-1.036-1.274-.53 0-.892.246-1.091.738-.033.104-.053.23-.053.38v2.848h-1.142V.532h1.142v2.855h.022c.36-.52.876-.778 1.545-.778.473 0 .865.142 1.176.429.387.356.581.887.581 1.588v2.817Zm6.201-2.115c.027-.13.043-.288.043-.477 0-.591-.152-1.089-.459-1.49-.379-.507-.941-.76-1.681-.76-.756 0-1.355.253-1.798.76-.424.474-.635 1.069-.635 1.783 0 .728.226 1.307.682 1.74.454.432 1.081.648 1.878.648.664 0 1.238-.098 1.726-.293l-.179-.731c-.417.15-.879.224-1.387.224-.458 0-.832-.11-1.122-.332-.318-.247-.482-.604-.497-1.072h3.429Zm-1.27-1.559c.155.227.23.497.222.81H115.8c.037-.32.15-.592.34-.82.232-.286.536-.429.909-.429.409 0 .712.147.91.44ZM45.564 25.603h-2.478l-1.357-3.928h-4.717l-1.293 3.928h-2.412l4.674-13.373h2.886l4.697 13.373Zm-4.244-5.576-1.227-3.492c-.13-.357-.373-1.197-.732-2.52h-.044a90.902 90.902 0 0 1-.69 2.52l-1.205 3.492h3.898Zm14.82 4.524c.962-.952 1.443-2.248 1.443-3.888 0-1.468-.412-2.652-1.24-3.552-.824-.9-1.855-1.349-3.09-1.349-1.58 0-2.757.575-3.532 1.726h-.044l-.13-1.528h-2.045c.056 1.085.086 2.143.086 3.174v10.398h2.326v-5.08h.043c.604.913 1.594 1.37 2.973 1.37 1.278 0 2.348-.424 3.21-1.27Zm-1.616-6.131c.46.609.69 1.383.69 2.321 0 1.02-.245 1.84-.734 2.462-.487.62-1.17.932-2.045.932-.746 0-1.353-.241-1.82-.725-.467-.483-.7-1.075-.7-1.776v-1.608c0-.17.036-.388.108-.653a2.417 2.417 0 0 1 .915-1.38 2.547 2.547 0 0 1 1.561-.526c.847 0 1.522.318 2.025.953Zm15.1 2.243c0 1.64-.481 2.936-1.444 3.888-.861.847-1.931 1.27-3.209 1.27-1.379 0-2.37-.456-2.972-1.368h-.043v5.08H59.63v-10.4c0-1.03-.03-2.089-.086-3.174h2.045l.13 1.528h.044c.774-1.151 1.951-1.726 3.532-1.726 1.234 0 2.265.45 3.092 1.349.824.9 1.237 2.084 1.237 3.552Zm-2.37.078c0-.938-.23-1.712-.69-2.321-.503-.635-1.176-.953-2.024-.953a2.55 2.55 0 0 0-1.562.526 2.415 2.415 0 0 0-.914 1.38 2.642 2.642 0 0 0-.108.653v1.608c0 .701.233 1.293.698 1.776.467.483 1.073.725 1.822.725.876 0 1.558-.312 2.045-.933.49-.622.733-1.442.733-2.46Zm14.543 3.89c.86-.715 1.29-1.64 1.29-2.778 0-.925-.294-1.7-.882-2.319-.59-.62-1.508-1.162-2.757-1.625-1.02-.371-1.725-.715-2.112-1.032-.445-.344-.666-.781-.666-1.31 0-.477.194-.88.581-1.21.458-.37 1.097-.557 1.916-.557 1.035 0 1.96.205 2.778.615l.582-1.746c-.876-.423-1.974-.635-3.295-.635-1.481 0-2.666.35-3.554 1.053-.891.701-1.337 1.603-1.337 2.702 0 1.682 1.27 2.962 3.812 3.835.934.319 1.603.663 2.003 1.034.403.37.603.828.603 1.37 0 .61-.243 1.098-.73 1.462-.49.364-1.172.547-2.048.547a6.792 6.792 0 0 1-3.362-.855l-.54 1.786c.949.556 2.201.833 3.763.833 1.692 0 3.01-.39 3.955-1.17Zm8.98-7.063h-2.564v4.682c0 1.19.452 1.785 1.357 1.785.416 0 .76-.033 1.033-.099l.065 1.627c-.459.158-1.062.237-1.81.237-.918 0-1.636-.258-2.154-.774-.516-.516-.775-1.382-.775-2.6v-4.86H84.4v-1.608h1.528v-1.766l2.284-.635v2.401h2.564v1.61Zm10.188 6.785c.919-.952 1.379-2.169 1.379-3.65 0-1.443-.445-2.62-1.337-3.531-.933-.94-2.17-1.409-3.705-1.409-1.594 0-2.862.476-3.801 1.429-.942.952-1.41 2.176-1.41 3.67 0 1.428.455 2.613 1.367 3.551.912.939 2.135 1.408 3.671 1.408 1.594 0 2.873-.488 3.836-1.468Zm-1.658-5.87c.418.636.624 1.4.624 2.288 0 .889-.216 1.66-.645 2.308-.503.782-1.2 1.174-2.088 1.174-.906 0-1.609-.384-2.112-1.154-.418-.635-.624-1.398-.624-2.287 0-.917.206-1.692.624-2.329.488-.768 1.198-1.153 2.133-1.153.903 0 1.6.384 2.088 1.153Zm10.598-.639a4.384 4.384 0 0 0-.733-.06c-.819 0-1.451.285-1.897.855-.387.503-.581 1.138-.581 1.904v5.06h-2.325l.022-6.606c0-1.112-.03-2.123-.087-3.036h2.026l.085 1.845h.064a3.312 3.312 0 0 1 1.163-1.527 2.975 2.975 0 0 1 1.681-.517c.215 0 .409.014.582.04v2.042Zm10.317 3.453c.058-.264.085-.588.085-.972 0-1.203-.309-2.215-.923-3.034-.776-1.032-1.918-1.547-3.427-1.547-1.536 0-2.757.515-3.66 1.547-.863.965-1.294 2.176-1.294 3.63 0 1.482.464 2.662 1.389 3.542.927.879 2.202 1.32 3.825 1.32 1.349 0 2.519-.199 3.51-.597l-.365-1.487c-.847.304-1.79.456-2.823.456-.934 0-1.694-.225-2.282-.674-.649-.503-.986-1.231-1.013-2.184h6.978Zm-2.585-3.174c.316.463.467 1.011.452 1.647v-.001h-4.845c.071-.647.301-1.203.688-1.666.473-.583 1.091-.874 1.852-.874.832 0 1.451.298 1.853.894Z" fill="#F8F9FA"/></svg>