<svg width="133" height="31" fill="none" xmlns="http://www.w3.org/2000/svg"><path d="M.542.963C.2 1.322 0 1.88 0 2.603v25.794c0 .724.199 1.282.542 1.64l.085.08 14.49-14.449v-.341L.627.879.542.963Z" fill="url(#a)"/><path d="m19.941 20.487-4.824-4.819v-.341l4.83-4.819.108.063 5.72 3.247c1.633.921 1.633 2.438 0 3.365l-5.72 3.24-.114.064Z" fill="url(#b)"/><path d="m20.055 20.424-4.938-4.926L.542 30.038c.542.568 1.427.637 2.432.068l17.081-9.682Z" fill="url(#c)"/><path d="M20.055 10.571 2.975.89C1.968.326 1.084.395.541.963l14.575 14.535 4.938-4.927Z" fill="url(#d)"/><path d="M44.85 3.95c0 .921-.28 1.659-.832 2.209-.635.651-1.46.98-2.474.98-.967 0-1.794-.334-2.472-.991-.68-.667-1.018-1.486-1.018-2.466 0-.98.339-1.798 1.018-2.46.678-.662 1.505-.996 2.472-.996.482 0 .942.098 1.38.28.437.183.793.431 1.05.737l-.585.582c-.45-.523-1.062-.78-1.845-.78a2.59 2.59 0 0 0-1.837.731c-.514.491-.772 1.126-.772 1.906s.258 1.421.772 1.912c.52.483 1.131.731 1.837.731.75 0 1.38-.248 1.877-.737.328-.324.514-.77.563-1.34h-2.44V3.45H44.8c.039.172.05.339.05.5Zm5.164-2.76h-3.057v2.094h2.756v.796h-2.756v2.095h3.057v.812h-3.923V.377h3.923v.812Zm3.645 5.797h-.866V1.189h-1.875V.378h4.618v.811h-1.877v5.798Zm5.219 0V.377h.864v6.61h-.864Zm4.695 0h-.859V1.189h-1.882V.378h4.623v.811h-1.882v5.798Zm10.625-.851c-.662.669-1.483 1.002-2.462 1.002-.985 0-1.805-.333-2.468-1.002-.661-.666-.99-1.485-.99-2.454 0-.969.329-1.787.99-2.454C69.931.56 70.751.226 71.736.226c.974 0 1.794.334 2.457 1.007.667.673.996 1.486.996 2.45 0 .968-.33 1.787-.99 2.454Zm-4.29-.553c.499.494 1.105.742 1.828.742.717 0 1.33-.248 1.822-.742.498-.495.75-1.13.75-1.9 0-.771-.252-1.406-.75-1.901-.493-.495-1.105-.743-1.822-.743-.723 0-1.33.248-1.828.743-.497.495-.75 1.13-.75 1.9s.253 1.406.75 1.9Zm6.495 1.404V.377h1.05l3.267 5.14h.038l-.038-1.27V.377h.864v6.61h-.902l-3.42-5.394h-.038l.038 1.276v4.118h-.859Z" fill="#F8F9FA" stroke="#F8F9FA" stroke-width=".053" stroke-miterlimit="10"/><mask id="e" fill="#fff"><path d="M68.065 16.639c-2.632 0-4.782 1.97-4.782 4.69 0 2.696 2.15 4.687 4.782 4.687 2.637 0 4.788-1.991 4.788-4.688 0-2.719-2.15-4.69-4.788-4.69Zm0 7.53c-1.444 0-2.687-1.172-2.687-2.84 0-1.692 1.243-2.844 2.687-2.844 1.444 0 2.692 1.152 2.692 2.843 0 1.669-1.248 2.842-2.692 2.842Zm-10.434-7.53c-2.637 0-4.782 1.97-4.782 4.69 0 2.696 2.145 4.687 4.782 4.687 2.636 0 4.782-1.991 4.782-4.688 0-2.719-2.146-4.69-4.782-4.69Zm0 7.53c-1.445 0-2.692-1.172-2.692-2.84 0-1.692 1.247-2.844 2.692-2.844 1.444 0 2.687 1.152 2.687 2.843 0 1.669-1.243 2.842-2.687 2.842Zm-12.415-6.093v1.992h4.836c-.141 1.114-.52 1.932-1.1 2.503-.705.69-1.805 1.454-3.736 1.454a5.267 5.267 0 0 1-5.308-5.292 5.267 5.267 0 0 1 5.308-5.292c1.609 0 2.78.62 3.644 1.421l1.428-1.404c-1.21-1.136-2.817-2.008-5.072-2.008-4.082 0-7.512 3.268-7.512 7.283 0 4.016 3.43 7.283 7.512 7.283 2.206 0 3.863-.71 5.165-2.045 1.335-1.313 1.751-3.16 1.751-4.65 0-.464-.039-.89-.11-1.245h-6.806Zm50.769 1.545c-.394-1.049-1.608-2.982-4.082-2.982-2.451 0-4.492 1.9-4.492 4.69 0 2.626 2.02 4.687 4.727 4.687a4.743 4.743 0 0 0 3.973-2.078l-1.625-1.065c-.542.78-1.28 1.297-2.348 1.297-1.06 0-1.82-.479-2.308-1.421l6.375-2.595-.22-.533Zm-6.5 1.561c-.054-1.808 1.428-2.734 2.49-2.734.832 0 1.538.41 1.773.995l-4.262 1.739Zm-5.18 4.549H86.4V11.95h-2.096v13.78Zm-3.432-8.048h-.07c-.47-.548-1.369-1.044-2.506-1.044-2.387 0-4.57 2.061-4.57 4.704 0 2.628 2.183 4.673 4.57 4.673 1.137 0 2.035-.5 2.506-1.065h.07v.672c0 1.793-.974 2.756-2.544 2.756-1.28 0-2.074-.909-2.402-1.674l-1.822.748c.525 1.243 1.916 2.773 4.224 2.773 2.457 0 4.53-1.422 4.53-4.882v-8.42h-1.986v.76Zm-2.397 6.487c-1.444 0-2.653-1.19-2.653-2.827 0-1.652 1.21-2.858 2.653-2.858 1.423 0 2.545 1.206 2.545 2.858 0 1.637-1.122 2.827-2.545 2.827Zm27.319-12.22h-5.011v13.78h2.089v-5.22h2.922c2.321 0 4.597-1.653 4.597-4.28 0-2.627-2.281-4.28-4.597-4.28Zm.055 6.643h-2.977v-4.726h2.977a2.41 2.41 0 0 1 2.451 2.362 2.424 2.424 0 0 1-2.451 2.364Zm12.918-1.98c-1.51 0-3.08.655-3.726 2.11l1.855.764c.399-.765 1.133-1.013 1.909-1.013 1.084 0 2.184.64 2.201 1.772v.145c-.379-.215-1.188-.533-2.184-.533-1.997 0-4.033 1.081-4.033 3.1 0 1.847 1.636 3.036 3.475 3.036 1.407 0 2.183-.624 2.67-1.35h.072v1.065h2.018v-5.286c0-2.444-1.855-3.81-4.257-3.81Zm-.252 7.551c-.683 0-1.636-.333-1.636-1.167 0-1.067 1.188-1.476 2.216-1.476.92 0 1.352.2 1.911.463-.164 1.276-1.281 2.18-2.491 2.18Zm11.863-7.25-2.403 5.974h-.071l-2.483-5.974h-2.254l3.731 8.348-2.129 4.646h2.184l5.75-12.994h-2.325Zm-18.838 8.817h2.095V11.95h-2.095v13.78Z"/></mask><path d="M68.065 16.639c-2.632 0-4.782 1.97-4.782 4.69 0 2.696 2.15 4.687 4.782 4.687 2.637 0 4.788-1.991 4.788-4.688 0-2.719-2.15-4.69-4.788-4.69Zm0 7.53c-1.444 0-2.687-1.172-2.687-2.84 0-1.692 1.243-2.844 2.687-2.844 1.444 0 2.692 1.152 2.692 2.843 0 1.669-1.248 2.842-2.692 2.842Zm-10.434-7.53c-2.637 0-4.782 1.97-4.782 4.69 0 2.696 2.145 4.687 4.782 4.687 2.636 0 4.782-1.991 4.782-4.688 0-2.719-2.146-4.69-4.782-4.69Zm0 7.53c-1.445 0-2.692-1.172-2.692-2.84 0-1.692 1.247-2.844 2.692-2.844 1.444 0 2.687 1.152 2.687 2.843 0 1.669-1.243 2.842-2.687 2.842Zm-12.415-6.093v1.992h4.836c-.141 1.114-.52 1.932-1.1 2.503-.705.69-1.805 1.454-3.736 1.454a5.267 5.267 0 0 1-5.308-5.292 5.267 5.267 0 0 1 5.308-5.292c1.609 0 2.78.62 3.644 1.421l1.428-1.404c-1.21-1.136-2.817-2.008-5.072-2.008-4.082 0-7.512 3.268-7.512 7.283 0 4.016 3.43 7.283 7.512 7.283 2.206 0 3.863-.71 5.165-2.045 1.335-1.313 1.751-3.16 1.751-4.65 0-.464-.039-.89-.11-1.245h-6.806Zm50.769 1.545c-.394-1.049-1.608-2.982-4.082-2.982-2.451 0-4.492 1.9-4.492 4.69 0 2.626 2.02 4.687 4.727 4.687a4.743 4.743 0 0 0 3.973-2.078l-1.625-1.065c-.542.78-1.28 1.297-2.348 1.297-1.06 0-1.82-.479-2.308-1.421l6.375-2.595-.22-.533Zm-6.5 1.561c-.054-1.808 1.428-2.734 2.49-2.734.832 0 1.538.41 1.773.995l-4.262 1.739Zm-5.18 4.549H86.4V11.95h-2.096v13.78Zm-3.432-8.048h-.07c-.47-.548-1.369-1.044-2.506-1.044-2.387 0-4.57 2.061-4.57 4.704 0 2.628 2.183 4.673 4.57 4.673 1.137 0 2.035-.5 2.506-1.065h.07v.672c0 1.793-.974 2.756-2.544 2.756-1.28 0-2.074-.909-2.402-1.674l-1.822.748c.525 1.243 1.916 2.773 4.224 2.773 2.457 0 4.53-1.422 4.53-4.882v-8.42h-1.986v.76Zm-2.397 6.487c-1.444 0-2.653-1.19-2.653-2.827 0-1.652 1.21-2.858 2.653-2.858 1.423 0 2.545 1.206 2.545 2.858 0 1.637-1.122 2.827-2.545 2.827Zm27.319-12.22h-5.011v13.78h2.089v-5.22h2.922c2.321 0 4.597-1.653 4.597-4.28 0-2.627-2.281-4.28-4.597-4.28Zm.055 6.643h-2.977v-4.726h2.977a2.41 2.41 0 0 1 2.451 2.362 2.424 2.424 0 0 1-2.451 2.364Zm12.918-1.98c-1.51 0-3.08.655-3.726 2.11l1.855.764c.399-.765 1.133-1.013 1.909-1.013 1.084 0 2.184.64 2.201 1.772v.145c-.379-.215-1.188-.533-2.184-.533-1.997 0-4.033 1.081-4.033 3.1 0 1.847 1.636 3.036 3.475 3.036 1.407 0 2.183-.624 2.67-1.35h.072v1.065h2.018v-5.286c0-2.444-1.855-3.81-4.257-3.81Zm-.252 7.551c-.683 0-1.636-.333-1.636-1.167 0-1.067 1.188-1.476 2.216-1.476.92 0 1.352.2 1.911.463-.164 1.276-1.281 2.18-2.491 2.18Zm11.863-7.25-2.403 5.974h-.071l-2.483-5.974h-2.254l3.731 8.348-2.129 4.646h2.184l5.75-12.994h-2.325Zm-18.838 8.817h2.095V11.95h-2.095v13.78Z" fill="#F8F9FA" stroke="#F8F9FA" stroke-width=".668" mask="url(#e)"/><defs><linearGradient id="a" x1="13.83" y1="28.666" x2="-5.744" y2="9.044" gradientUnits="userSpaceOnUse"><stop stop-color="#00A0FF"/><stop offset=".007" stop-color="#00A1FF"/><stop offset=".26" stop-color="#00BEFF"/><stop offset=".512" stop-color="#00D2FF"/><stop offset=".76" stop-color="#00DFFF"/><stop offset="1" stop-color="#00E3FF"/></linearGradient><linearGradient id="b" x1="27.901" y1="15.496" x2="-.39" y2="15.496" gradientUnits="userSpaceOnUse"><stop stop-color="#FFE000"/><stop offset=".409" stop-color="#FFBD00"/><stop offset=".775" stop-color="orange"/><stop offset="1" stop-color="#FF9C00"/></linearGradient><linearGradient id="c" x1="17.37" y1="12.819" x2="-9.175" y2="-13.79" gradientUnits="userSpaceOnUse"><stop stop-color="#FF3A44"/><stop offset="1" stop-color="#C31162"/></linearGradient><linearGradient id="d" x1="-3.126" y1="38.619" x2="8.727" y2="26.737" gradientUnits="userSpaceOnUse"><stop stop-color="#32A071"/><stop offset=".069" stop-color="#2DA771"/><stop offset=".476" stop-color="#15CF74"/><stop offset=".801" stop-color="#06E775"/><stop offset="1" stop-color="#00F076"/></linearGradient></defs></svg>