<?xml version="1.0" encoding="utf-8"?><svg viewBox="0 0 153 115" xmlns="http://www.w3.org/2000/svg" xmlns:xlink="http://www.w3.org/1999/xlink"><style>:root>svg{display:none}:root>svg:target{display:block}</style><svg viewBox="0 0 121 30" id="icons--app-store" xmlns="http://www.w3.org/2000/svg"><path fill-rule="evenodd" clip-rule="evenodd" d="M17.747.17c.182 1.615-.475 3.206-1.434 4.376-1.001 1.151-2.602 2.032-4.162 1.919-.204-1.554.586-3.207 1.47-4.215 1-1.144 2.737-2.02 4.126-2.08Zm5.106 9.316c-.174.101-3.06 1.78-3.027 5.203.036 4.135 3.709 5.501 3.753 5.516-.021.097-.575 1.973-1.952 3.878-1.15 1.677-2.356 3.316-4.27 3.346-.91.02-1.525-.234-2.165-.5-.668-.278-1.364-.567-2.453-.567-1.154 0-1.881.299-2.582.586-.607.249-1.193.49-2.02.523-1.824.065-3.217-1.79-4.409-3.453-2.383-3.393-4.238-9.563-1.75-13.761 1.205-2.06 3.402-3.386 5.751-3.42 1.035-.022 2.027.367 2.897.708.665.26 1.258.493 1.744.493.427 0 1.004-.223 1.676-.483 1.06-.41 2.357-.912 3.678-.777.903.026 3.474.348 5.132 2.706l-.003.002Zm16.544-2.812c.769-.598 1.154-1.489 1.154-2.672 0-1.053-.357-1.862-1.068-2.427-.635-.5-1.576-.751-2.826-.751a13.3 13.3 0 0 0-1.969.137v6.462c.466.052 1.022.079 1.673.079 1.31 0 2.323-.277 3.036-.828Zm-.713-4.407c.441.41.662.998.662 1.765 0 .858-.24 1.511-.716 1.96-.476.447-1.151.671-2.026.671-.374 0-.632-.009-.773-.029V1.721c.255-.046.561-.068.921-.068.848 0 1.492.205 1.932.614Zm8.259 2.768c0 .73-.226 1.326-.677 1.794-.474.482-1.101.722-1.885.722-.755 0-1.356-.23-1.804-.693-.447-.46-.671-1.043-.671-1.744 0-.734.23-1.336.693-1.803.462-.467 1.084-.701 1.868-.701.754 0 1.361.23 1.82.691.437.448.656 1.027.656 1.734Zm-1.186.035c0-.437-.102-.812-.306-1.125a1.146 1.146 0 0 0-1.026-.567c-.46 0-.808.19-1.048.567-.206.313-.307.694-.307 1.144 0 .437.103.812.307 1.124.247.378.592.567 1.037.567.436 0 .779-.192 1.026-.577.211-.318.317-.696.317-1.133Zm9.756-2.363Zm-1.122 0h1.122l-1.609 4.736h-1.047l-.666-2.057a14.401 14.401 0 0 1-.414-1.53h-.02c-.1.52-.237 1.03-.414 1.53l-.708 2.057h-1.06l-1.513-4.737h1.175l.582 2.252c.14.533.256 1.04.349 1.52h.02c.086-.395.226-.9.425-1.51l.73-2.26h.931l.7 2.212c.169.54.306 1.06.412 1.56h.032a13.89 13.89 0 0 1 .349-1.56l.624-2.213Zm7.05 4.736h-1.144V4.73c0-.836-.344-1.254-1.036-1.254-.34 0-.613.114-.826.345-.21.23-.317.501-.317.812v2.81h-1.144V4.06c0-.416-.014-.868-.041-1.356h1.005l.053.74h.032c.133-.23.331-.42.592-.571.31-.177.657-.266 1.037-.266.48 0 .879.142 1.196.429.395.35.593.874.593 1.57v2.837Zm2.01 0h1.143V.533H63.45v6.91Zm7.874-2.407c0 .728-.226 1.325-.678 1.793-.473.482-1.102.722-1.884.722-.756 0-1.357-.23-1.804-.693-.447-.46-.671-1.043-.671-1.744 0-.734.23-1.336.693-1.803.462-.467 1.084-.701 1.866-.701.756 0 1.362.23 1.822.691.437.448.656 1.027.656 1.734Zm-1.187.034c0-.437-.103-.812-.307-1.125a1.145 1.145 0 0 0-1.024-.567c-.46 0-.81.19-1.049.567-.205.313-.306.694-.306 1.144 0 .437.103.812.306 1.124.248.378.593.567 1.038.567.436 0 .778-.192 1.024-.577.213-.318.318-.696.318-1.133Zm5.694 2.373h1.026a6.824 6.824 0 0 1-.074-1.13V4.57c0-1.306-.674-1.96-2.018-1.96-.696 0-1.286.137-1.764.41l.232.691c.386-.233.834-.35 1.34-.35.713 0 1.069.31 1.069.935v.088c-.953-.007-1.692.143-2.218.449-.527.305-.789.746-.789 1.325 0 .383.134.705.403.965.296.285.688.429 1.174.429.65 0 1.15-.218 1.502-.653h.032l.085.545Zm-.16-2.358v.73a.824.824 0 0 1-.02.185.894.894 0 0 1-.395.561 1.22 1.22 0 0 1-.7.219.841.841 0 0 1-.558-.185c-.147-.123-.22-.308-.22-.556 0-.656.631-.974 1.892-.954Zm7.683 2.358H82.34l-.053-.76h-.032c-.324.578-.876.868-1.651.868-.62 0-1.136-.224-1.545-.672-.41-.449-.613-1.03-.613-1.745 0-.767.221-1.388.666-1.862.431-.442.96-.663 1.588-.663.69 0 1.173.214 1.448.643h.022V.532h1.145v5.635c0 .461.013.886.04 1.276ZM82.17 5.446v-.79c0-.137-.01-.248-.032-.332a1.185 1.185 0 0 0-.413-.638 1.182 1.182 0 0 0-.765-.258c-.426 0-.76.155-1.006.468-.243.312-.366.711-.366 1.199 0 .468.117.848.351 1.14.248.312.582.468 1 .468.375 0 .675-.13.903-.39.22-.24.328-.53.328-.867Zm10.286 1.383c.451-.468.677-1.065.677-1.793 0-.708-.219-1.287-.655-1.735-.459-.461-1.066-.691-1.82-.691-.784 0-1.406.234-1.869.701-.463.467-.693 1.07-.693 1.803 0 .701.224 1.283.671 1.744.45.463 1.05.693 1.805.693.784 0 1.41-.24 1.884-.722Zm-.814-2.884c.204.313.306.688.306 1.125 0 .437-.106.815-.317 1.133-.246.385-.59.577-1.027.577-.445 0-.79-.189-1.037-.567-.204-.312-.307-.687-.307-1.124 0-.45.102-.831.307-1.144.241-.378.59-.567 1.048-.567.445 0 .786.19 1.027.567Zm7.639 3.498h-1.142V4.73c0-.836-.345-1.254-1.038-1.254-.34 0-.613.114-.825.345-.211.23-.317.501-.317.812v2.81h-1.145V4.06c0-.416-.013-.868-.04-1.356h1.004l.053.74h.032a1.6 1.6 0 0 1 .592-.571 2.062 2.062 0 0 1 1.038-.266c.479 0 .878.142 1.195.429.397.35.593.874.593 1.57v2.837Zm6.435-3.948h1.258v-.79h-1.259V1.526l-1.12.312v.868h-.752v.789h.752v2.389c0 .598.126 1.024.382 1.277.254.253.605.38 1.057.38.365 0 .662-.04.888-.118l-.029-.799a2.19 2.19 0 0 1-.51.05c-.443 0-.667-.293-.667-.878V3.495Zm7.312 3.948h-1.144V4.75c0-.85-.345-1.274-1.036-1.274-.53 0-.892.246-1.091.738-.033.104-.053.23-.053.38v2.848h-1.142V.532h1.142v2.855h.022c.36-.52.876-.778 1.545-.778.473 0 .865.142 1.176.429.387.356.581.887.581 1.588v2.817Zm6.201-2.115c.027-.13.043-.288.043-.477 0-.591-.152-1.089-.459-1.49-.379-.507-.941-.76-1.681-.76-.756 0-1.355.253-1.798.76-.424.474-.635 1.069-.635 1.783 0 .728.226 1.307.682 1.74.454.432 1.081.648 1.878.648.664 0 1.238-.098 1.726-.293l-.179-.731c-.417.15-.879.224-1.387.224-.458 0-.832-.11-1.122-.332-.318-.247-.482-.604-.497-1.072h3.429Zm-1.27-1.559c.155.227.23.497.222.81H115.8c.037-.32.15-.592.34-.82.232-.286.536-.429.909-.429.409 0 .712.147.91.44ZM45.564 25.603h-2.478l-1.357-3.928h-4.717l-1.293 3.928h-2.412l4.674-13.373h2.886l4.697 13.373Zm-4.244-5.576-1.227-3.492c-.13-.357-.373-1.197-.732-2.52h-.044a90.902 90.902 0 0 1-.69 2.52l-1.205 3.492h3.898Zm14.82 4.524c.962-.952 1.443-2.248 1.443-3.888 0-1.468-.412-2.652-1.24-3.552-.824-.9-1.855-1.349-3.09-1.349-1.58 0-2.757.575-3.532 1.726h-.044l-.13-1.528h-2.045c.056 1.085.086 2.143.086 3.174v10.398h2.326v-5.08h.043c.604.913 1.594 1.37 2.973 1.37 1.278 0 2.348-.424 3.21-1.27Zm-1.616-6.131c.46.609.69 1.383.69 2.321 0 1.02-.245 1.84-.734 2.462-.487.62-1.17.932-2.045.932-.746 0-1.353-.241-1.82-.725-.467-.483-.7-1.075-.7-1.776v-1.608c0-.17.036-.388.108-.653a2.417 2.417 0 0 1 .915-1.38 2.547 2.547 0 0 1 1.561-.526c.847 0 1.522.318 2.025.953Zm15.1 2.243c0 1.64-.481 2.936-1.444 3.888-.861.847-1.931 1.27-3.209 1.27-1.379 0-2.37-.456-2.972-1.368h-.043v5.08H59.63v-10.4c0-1.03-.03-2.089-.086-3.174h2.045l.13 1.528h.044c.774-1.151 1.951-1.726 3.532-1.726 1.234 0 2.265.45 3.092 1.349.824.9 1.237 2.084 1.237 3.552Zm-2.37.078c0-.938-.23-1.712-.69-2.321-.503-.635-1.176-.953-2.024-.953a2.55 2.55 0 0 0-1.562.526 2.415 2.415 0 0 0-.914 1.38 2.642 2.642 0 0 0-.108.653v1.608c0 .701.233 1.293.698 1.776.467.483 1.073.725 1.822.725.876 0 1.558-.312 2.045-.933.49-.622.733-1.442.733-2.46Zm14.543 3.89c.86-.715 1.29-1.64 1.29-2.778 0-.925-.294-1.7-.882-2.319-.59-.62-1.508-1.162-2.757-1.625-1.02-.371-1.725-.715-2.112-1.032-.445-.344-.666-.781-.666-1.31 0-.477.194-.88.581-1.21.458-.37 1.097-.557 1.916-.557 1.035 0 1.96.205 2.778.615l.582-1.746c-.876-.423-1.974-.635-3.295-.635-1.481 0-2.666.35-3.554 1.053-.891.701-1.337 1.603-1.337 2.702 0 1.682 1.27 2.962 3.812 3.835.934.319 1.603.663 2.003 1.034.403.37.603.828.603 1.37 0 .61-.243 1.098-.73 1.462-.49.364-1.172.547-2.048.547a6.792 6.792 0 0 1-3.362-.855l-.54 1.786c.949.556 2.201.833 3.763.833 1.692 0 3.01-.39 3.955-1.17Zm8.98-7.063h-2.564v4.682c0 1.19.452 1.785 1.357 1.785.416 0 .76-.033 1.033-.099l.065 1.627c-.459.158-1.062.237-1.81.237-.918 0-1.636-.258-2.154-.774-.516-.516-.775-1.382-.775-2.6v-4.86H84.4v-1.608h1.528v-1.766l2.284-.635v2.401h2.564v1.61Zm10.188 6.785c.919-.952 1.379-2.169 1.379-3.65 0-1.443-.445-2.62-1.337-3.531-.933-.94-2.17-1.409-3.705-1.409-1.594 0-2.862.476-3.801 1.429-.942.952-1.41 2.176-1.41 3.67 0 1.428.455 2.613 1.367 3.551.912.939 2.135 1.408 3.671 1.408 1.594 0 2.873-.488 3.836-1.468Zm-1.658-5.87c.418.636.624 1.4.624 2.288 0 .889-.216 1.66-.645 2.308-.503.782-1.2 1.174-2.088 1.174-.906 0-1.609-.384-2.112-1.154-.418-.635-.624-1.398-.624-2.287 0-.917.206-1.692.624-2.329.488-.768 1.198-1.153 2.133-1.153.903 0 1.6.384 2.088 1.153Zm10.598-.639a4.384 4.384 0 0 0-.733-.06c-.819 0-1.451.285-1.897.855-.387.503-.581 1.138-.581 1.904v5.06h-2.325l.022-6.606c0-1.112-.03-2.123-.087-3.036h2.026l.085 1.845h.064a3.312 3.312 0 0 1 1.163-1.527 2.975 2.975 0 0 1 1.681-.517c.215 0 .409.014.582.04v2.042Zm10.317 3.453c.058-.264.085-.588.085-.972 0-1.203-.309-2.215-.923-3.034-.776-1.032-1.918-1.547-3.427-1.547-1.536 0-2.757.515-3.66 1.547-.863.965-1.294 2.176-1.294 3.63 0 1.482.464 2.662 1.389 3.542.927.879 2.202 1.32 3.825 1.32 1.349 0 2.519-.199 3.51-.597l-.365-1.487c-.847.304-1.79.456-2.823.456-.934 0-1.694-.225-2.282-.674-.649-.503-.986-1.231-1.013-2.184h6.978Zm-2.585-3.174c.316.463.467 1.011.452 1.647v-.001h-4.845c.071-.647.301-1.203.688-1.666.473-.583 1.091-.874 1.852-.874.832 0 1.451.298 1.853.894Z"/></svg><svg viewBox="0 0 133 31" id="icons--google-play" xmlns="http://www.w3.org/2000/svg"><path d="M.542.963C.2 1.322 0 1.88 0 2.603v25.794c0 .724.199 1.282.542 1.64l.085.08 14.49-14.449v-.341L.627.879.542.963Z"/><path d="m19.941 20.487-4.824-4.819v-.341l4.83-4.819.108.063 5.72 3.247c1.633.921 1.633 2.438 0 3.365l-5.72 3.24-.114.064Z"/><path d="m20.055 20.424-4.938-4.926L.542 30.038c.542.568 1.427.637 2.432.068l17.081-9.682ZM20.055 10.571 2.975.89C1.968.326 1.084.395.541.963l14.575 14.535 4.938-4.927ZM44.85 3.95c0 .921-.28 1.659-.832 2.209-.635.651-1.46.98-2.474.98-.967 0-1.794-.334-2.472-.991-.68-.667-1.018-1.486-1.018-2.466 0-.98.339-1.798 1.018-2.46.678-.662 1.505-.996 2.472-.996.482 0 .942.098 1.38.28.437.183.793.431 1.05.737l-.585.582c-.45-.523-1.062-.78-1.845-.78a2.59 2.59 0 0 0-1.837.731c-.514.491-.772 1.126-.772 1.906s.258 1.421.772 1.912c.52.483 1.131.731 1.837.731.75 0 1.38-.248 1.877-.737.328-.324.514-.77.563-1.34h-2.44V3.45H44.8c.039.172.05.339.05.5Zm5.164-2.76h-3.057v2.094h2.756v.796h-2.756v2.095h3.057v.812h-3.923V.377h3.923v.812Zm3.645 5.797h-.866V1.189h-1.875V.378h4.618v.811h-1.877v5.798Zm5.219 0V.377h.864v6.61h-.864Zm4.695 0h-.859V1.189h-1.882V.378h4.623v.811h-1.882v5.798Zm10.625-.851c-.662.669-1.483 1.002-2.462 1.002-.985 0-1.805-.333-2.468-1.002-.661-.666-.99-1.485-.99-2.454 0-.969.329-1.787.99-2.454C69.931.56 70.751.226 71.736.226c.974 0 1.794.334 2.457 1.007.667.673.996 1.486.996 2.45 0 .968-.33 1.787-.99 2.454Zm-4.29-.553c.499.494 1.105.742 1.828.742.717 0 1.33-.248 1.822-.742.498-.495.75-1.13.75-1.9 0-.771-.252-1.406-.75-1.901-.493-.495-1.105-.743-1.822-.743-.723 0-1.33.248-1.828.743-.497.495-.75 1.13-.75 1.9s.253 1.406.75 1.9Zm6.495 1.404V.377h1.05l3.267 5.14h.038l-.038-1.27V.377h.864v6.61h-.902l-3.42-5.394h-.038l.038 1.276v4.118h-.859Z"/><mask id="ca"><path d="M68.065 16.639c-2.632 0-4.782 1.97-4.782 4.69 0 2.696 2.15 4.687 4.782 4.687 2.637 0 4.788-1.991 4.788-4.688 0-2.719-2.15-4.69-4.788-4.69Zm0 7.53c-1.444 0-2.687-1.172-2.687-2.84 0-1.692 1.243-2.844 2.687-2.844 1.444 0 2.692 1.152 2.692 2.843 0 1.669-1.248 2.842-2.692 2.842Zm-10.434-7.53c-2.637 0-4.782 1.97-4.782 4.69 0 2.696 2.145 4.687 4.782 4.687 2.636 0 4.782-1.991 4.782-4.688 0-2.719-2.146-4.69-4.782-4.69Zm0 7.53c-1.445 0-2.692-1.172-2.692-2.84 0-1.692 1.247-2.844 2.692-2.844 1.444 0 2.687 1.152 2.687 2.843 0 1.669-1.243 2.842-2.687 2.842Zm-12.415-6.093v1.992h4.836c-.141 1.114-.52 1.932-1.1 2.503-.705.69-1.805 1.454-3.736 1.454a5.267 5.267 0 0 1-5.308-5.292 5.267 5.267 0 0 1 5.308-5.292c1.609 0 2.78.62 3.644 1.421l1.428-1.404c-1.21-1.136-2.817-2.008-5.072-2.008-4.082 0-7.512 3.268-7.512 7.283 0 4.016 3.43 7.283 7.512 7.283 2.206 0 3.863-.71 5.165-2.045 1.335-1.313 1.751-3.16 1.751-4.65 0-.464-.039-.89-.11-1.245h-6.806Zm50.769 1.545c-.394-1.049-1.608-2.982-4.082-2.982-2.451 0-4.492 1.9-4.492 4.69 0 2.626 2.02 4.687 4.727 4.687a4.743 4.743 0 0 0 3.973-2.078l-1.625-1.065c-.542.78-1.28 1.297-2.348 1.297-1.06 0-1.82-.479-2.308-1.421l6.375-2.595-.22-.533Zm-6.5 1.561c-.054-1.808 1.428-2.734 2.49-2.734.832 0 1.538.41 1.773.995l-4.262 1.739Zm-5.18 4.549H86.4V11.95h-2.096v13.78Zm-3.432-8.048h-.07c-.47-.548-1.369-1.044-2.506-1.044-2.387 0-4.57 2.061-4.57 4.704 0 2.628 2.183 4.673 4.57 4.673 1.137 0 2.035-.5 2.506-1.065h.07v.672c0 1.793-.974 2.756-2.544 2.756-1.28 0-2.074-.909-2.402-1.674l-1.822.748c.525 1.243 1.916 2.773 4.224 2.773 2.457 0 4.53-1.422 4.53-4.882v-8.42h-1.986v.76Zm-2.397 6.487c-1.444 0-2.653-1.19-2.653-2.827 0-1.652 1.21-2.858 2.653-2.858 1.423 0 2.545 1.206 2.545 2.858 0 1.637-1.122 2.827-2.545 2.827Zm27.319-12.22h-5.011v13.78h2.089v-5.22h2.922c2.321 0 4.597-1.653 4.597-4.28 0-2.627-2.281-4.28-4.597-4.28Zm.055 6.643h-2.977v-4.726h2.977a2.41 2.41 0 0 1 2.451 2.362 2.424 2.424 0 0 1-2.451 2.364Zm12.918-1.98c-1.51 0-3.08.655-3.726 2.11l1.855.764c.399-.765 1.133-1.013 1.909-1.013 1.084 0 2.184.64 2.201 1.772v.145c-.379-.215-1.188-.533-2.184-.533-1.997 0-4.033 1.081-4.033 3.1 0 1.847 1.636 3.036 3.475 3.036 1.407 0 2.183-.624 2.67-1.35h.072v1.065h2.018v-5.286c0-2.444-1.855-3.81-4.257-3.81Zm-.252 7.551c-.683 0-1.636-.333-1.636-1.167 0-1.067 1.188-1.476 2.216-1.476.92 0 1.352.2 1.911.463-.164 1.276-1.281 2.18-2.491 2.18Zm11.863-7.25-2.403 5.974h-.071l-2.483-5.974h-2.254l3.731 8.348-2.129 4.646h2.184l5.75-12.994h-2.325Zm-18.838 8.817h2.095V11.95h-2.095v13.78Z"/></mask><path d="M68.065 16.639c-2.632 0-4.782 1.97-4.782 4.69 0 2.696 2.15 4.687 4.782 4.687 2.637 0 4.788-1.991 4.788-4.688 0-2.719-2.15-4.69-4.788-4.69Zm0 7.53c-1.444 0-2.687-1.172-2.687-2.84 0-1.692 1.243-2.844 2.687-2.844 1.444 0 2.692 1.152 2.692 2.843 0 1.669-1.248 2.842-2.692 2.842Zm-10.434-7.53c-2.637 0-4.782 1.97-4.782 4.69 0 2.696 2.145 4.687 4.782 4.687 2.636 0 4.782-1.991 4.782-4.688 0-2.719-2.146-4.69-4.782-4.69Zm0 7.53c-1.445 0-2.692-1.172-2.692-2.84 0-1.692 1.247-2.844 2.692-2.844 1.444 0 2.687 1.152 2.687 2.843 0 1.669-1.243 2.842-2.687 2.842Zm-12.415-6.093v1.992h4.836c-.141 1.114-.52 1.932-1.1 2.503-.705.69-1.805 1.454-3.736 1.454a5.267 5.267 0 0 1-5.308-5.292 5.267 5.267 0 0 1 5.308-5.292c1.609 0 2.78.62 3.644 1.421l1.428-1.404c-1.21-1.136-2.817-2.008-5.072-2.008-4.082 0-7.512 3.268-7.512 7.283 0 4.016 3.43 7.283 7.512 7.283 2.206 0 3.863-.71 5.165-2.045 1.335-1.313 1.751-3.16 1.751-4.65 0-.464-.039-.89-.11-1.245h-6.806Zm50.769 1.545c-.394-1.049-1.608-2.982-4.082-2.982-2.451 0-4.492 1.9-4.492 4.69 0 2.626 2.02 4.687 4.727 4.687a4.743 4.743 0 0 0 3.973-2.078l-1.625-1.065c-.542.78-1.28 1.297-2.348 1.297-1.06 0-1.82-.479-2.308-1.421l6.375-2.595-.22-.533Zm-6.5 1.561c-.054-1.808 1.428-2.734 2.49-2.734.832 0 1.538.41 1.773.995l-4.262 1.739Zm-5.18 4.549H86.4V11.95h-2.096v13.78Zm-3.432-8.048h-.07c-.47-.548-1.369-1.044-2.506-1.044-2.387 0-4.57 2.061-4.57 4.704 0 2.628 2.183 4.673 4.57 4.673 1.137 0 2.035-.5 2.506-1.065h.07v.672c0 1.793-.974 2.756-2.544 2.756-1.28 0-2.074-.909-2.402-1.674l-1.822.748c.525 1.243 1.916 2.773 4.224 2.773 2.457 0 4.53-1.422 4.53-4.882v-8.42h-1.986v.76Zm-2.397 6.487c-1.444 0-2.653-1.19-2.653-2.827 0-1.652 1.21-2.858 2.653-2.858 1.423 0 2.545 1.206 2.545 2.858 0 1.637-1.122 2.827-2.545 2.827Zm27.319-12.22h-5.011v13.78h2.089v-5.22h2.922c2.321 0 4.597-1.653 4.597-4.28 0-2.627-2.281-4.28-4.597-4.28Zm.055 6.643h-2.977v-4.726h2.977a2.41 2.41 0 0 1 2.451 2.362 2.424 2.424 0 0 1-2.451 2.364Zm12.918-1.98c-1.51 0-3.08.655-3.726 2.11l1.855.764c.399-.765 1.133-1.013 1.909-1.013 1.084 0 2.184.64 2.201 1.772v.145c-.379-.215-1.188-.533-2.184-.533-1.997 0-4.033 1.081-4.033 3.1 0 1.847 1.636 3.036 3.475 3.036 1.407 0 2.183-.624 2.67-1.35h.072v1.065h2.018v-5.286c0-2.444-1.855-3.81-4.257-3.81Zm-.252 7.551c-.683 0-1.636-.333-1.636-1.167 0-1.067 1.188-1.476 2.216-1.476.92 0 1.352.2 1.911.463-.164 1.276-1.281 2.18-2.491 2.18Zm11.863-7.25-2.403 5.974h-.071l-2.483-5.974h-2.254l3.731 8.348-2.129 4.646h2.184l5.75-12.994h-2.325Zm-18.838 8.817h2.095V11.95h-2.095v13.78Z" mask="url(#ca)"/></svg><svg viewBox="0 0 44 115" id="icons--hint" xmlns="http://www.w3.org/2000/svg"><rect x="1" y="1" width="42" height="42" rx="21"/><rect x="21" y="22" width="2" height="88" rx="1"/><circle cx="22" cy="112" r="3"/></svg><svg viewBox="0 0 44 44" id="icons--play" xmlns="http://www.w3.org/2000/svg"><path fill-rule="evenodd" clip-rule="evenodd" d="M22 42C10.954 42 2 33.046 2 22S10.954 2 22 2s20 8.954 20 20-8.954 20-20 20ZM0 22C0 9.85 9.85 0 22 0s22 9.85 22 22-9.85 22-22 22S0 34.15 0 22Zm17.54-9.841A1 1 0 0 0 16 13v18a1 1 0 0 0 1.54.841l14-9a1 1 0 0 0 0-1.682l-14-9ZM29.15 22 18 29.168V14.832L29.15 22Z"/></svg><svg viewBox="0 0 42 33" id="icons--qoute" xmlns="http://www.w3.org/2000/svg"><path d="M2.463 33C.821 28.111 0 23.304 0 18.578 0 12.874 1.437 8.352 4.31 5.01 7.268 1.671 11.579 0 17.244 0v7.944c-4.27 0-6.404 2.69-6.404 8.067v1.956h7.76V33H2.462Zm23.402 0c-1.642-4.889-2.463-9.696-2.463-14.422 0-5.704 1.437-10.226 4.31-13.567C30.67 1.671 34.98 0 40.646 0v7.944c-4.27 0-6.405 2.69-6.405 8.067v1.956H42V33H25.865Z"/></svg><svg viewBox="0 0 153 24" id="logo" xmlns="http://www.w3.org/2000/svg"><g clip-path="url(#aa)"><path d="M11.901 19.916c-2.251 0-4.149-.74-5.661-2.254-1.512-1.514-2.251-3.414-2.251-5.7s.739-4.185 2.251-5.699c1.512-1.514 3.41-2.286 5.661-2.286 2.477 0 4.535.902 6.144 2.737l2.734-2.35C18.431 1.69 15.471.337 11.901.337c-3.313 0-6.144 1.094-8.46 3.317C1.159 5.875 0 8.647 0 11.962c0 3.316 1.158 6.086 3.442 8.307 2.315 2.19 5.146 3.286 8.46 3.286 3.505 0 6.722-1.514 8.909-4.09l-2.702-2.352c-1.576 1.868-3.667 2.803-6.208 2.803Zm136.486.238a.704.704 0 0 1 .708-.705.706.706 0 1 1-.709.705m-1.237-.733-1.822.493c-.01.16-.008.32.003.484l1.819.493c.14.038.214.192.156.324l-.749 1.729c.12.108.248.208.381.3l1.52-1.113a.24.24 0 0 1 .352.08l.886 1.661c.079-.012.159-.024.24-.042.079-.017.155-.042.233-.065l.077-1.88a.239.239 0 0 1 .18-.221.237.237 0 0 1 .101-.004l1.853.344a4.07 4.07 0 0 0 .213-.435l-1.427-1.234a.244.244 0 0 1-.082-.18.245.245 0 0 1 .082-.18l1.425-1.233a3.9 3.9 0 0 0-.207-.437l-1.857.345a.237.237 0 0 1-.281-.225l-.077-1.881a3.806 3.806 0 0 0-.472-.11l-.886 1.664a.24.24 0 0 1-.353.08l-1.523-1.114a3.66 3.66 0 0 0-.378.301l.749 1.73a.241.241 0 0 1-.156.325ZM40.748 17.695c-1.512 1.513-3.377 2.285-5.596 2.285-2.22 0-4.118-.772-5.629-2.285-1.512-1.514-2.252-3.414-2.252-5.7 0-2.254.74-4.154 2.252-5.7 1.511-1.545 3.409-2.318 5.628-2.318 2.22 0 4.085.773 5.597 2.319 1.512 1.545 2.284 3.445 2.284 5.698 0 2.254-.77 4.154-2.284 5.7ZM35.152.338c-3.313 0-6.11 1.127-8.395 3.381-2.284 2.221-3.441 4.992-3.441 8.275 0 3.285 1.157 6.055 3.441 8.276 2.284 2.222 5.082 3.349 8.395 3.349 3.313 0 6.144-1.127 8.427-3.349 2.285-2.221 3.442-4.992 3.442-8.275 0-3.285-1.158-6.055-3.473-8.275C41.264 1.464 38.465.338 35.152.338Zm35.942 15.871L66.076.96h-3.503l-5.018 15.249L52.187.96H48l7.718 22.08h3.624L64.32 7.853l4.947 15.187h3.656L80.64.96h-4.177l-5.37 15.249Zm22.07 3.251h-4.588v-6.272h4.556c2.097 0 3.604 1.33 3.604 3.104 0 1.806-1.508 3.168-3.572 3.168ZM88.576 4.54h3.639c1.703 0 2.916 1.11 2.916 2.599 0 1.615-1.213 2.724-2.95 2.724h-3.605V4.541Zm7.636 6.495c1.836-.665 2.917-2.312 2.917-4.435 0-1.616-.622-2.978-1.869-4.022C96.048 1.498 94.54.96 92.74.96h-8.26v22.08h9.373c2 0 3.638-.602 4.948-1.837 1.344-1.236 1.999-2.82 1.999-4.69 0-2.819-1.671-4.972-4.589-5.479l.001.001Zm25.098 6.66c-1.512 1.513-3.377 2.285-5.596 2.285-2.22 0-4.118-.772-5.629-2.285-1.512-1.514-2.252-3.414-2.252-5.7 0-2.254.74-4.154 2.252-5.7 1.511-1.545 3.409-2.318 5.629-2.318 2.219 0 4.084.773 5.596 2.319 1.512 1.545 2.284 3.445 2.284 5.698 0 2.254-.771 4.154-2.284 5.7ZM115.715.338c-3.314 0-6.112 1.127-8.397 3.381-2.283 2.221-3.441 4.992-3.441 8.275 0 3.285 1.158 6.055 3.441 8.276 2.284 2.222 5.083 3.349 8.396 3.349 3.313 0 6.144-1.127 8.428-3.349 2.283-2.221 3.441-4.992 3.441-8.275 0-3.285-1.158-6.055-3.475-8.275-2.283-2.256-5.08-3.382-8.393-3.382Zm29.547.622-6.564 10.886L132.108.96h-4.428l8.765 14.386-4.641 7.694h4.505l4.448-7.302L149.76.96h-4.498Z"/></g><defs><clipPath id="aa"><path d="M0 0h152.64v24H0z"/></clipPath></defs></svg></svg>