<?xml version="1.0" encoding="utf-8"?><svg viewBox="0 0 153 115" xmlns="http://www.w3.org/2000/svg" xmlns:xlink="http://www.w3.org/1999/xlink"><style>:root>svg{display:none}:root>svg:target{display:block}</style><svg viewBox="0 0 44 115" id="icons--hint" xmlns="http://www.w3.org/2000/svg"><rect x="1" y="1" width="42" height="42" rx="21"/><rect x="21" y="22" width="2" height="88" rx="1"/><circle cx="22" cy="112" r="3"/></svg><svg viewBox="0 0 44 44" id="icons--play" xmlns="http://www.w3.org/2000/svg"><path fill-rule="evenodd" clip-rule="evenodd" d="M22 42C10.954 42 2 33.046 2 22S10.954 2 22 2s20 8.954 20 20-8.954 20-20 20ZM0 22C0 9.85 9.85 0 22 0s22 9.85 22 22-9.85 22-22 22S0 34.15 0 22Zm17.54-9.841A1 1 0 0 0 16 13v18a1 1 0 0 0 1.54.841l14-9a1 1 0 0 0 0-1.682l-14-9ZM29.15 22 18 29.168V14.832L29.15 22Z"/></svg><svg viewBox="0 0 153 24" id="logo" xmlns="http://www.w3.org/2000/svg"><g clip-path="url(#aa)"><path d="M11.901 19.916c-2.251 0-4.149-.74-5.661-2.254-1.512-1.514-2.251-3.414-2.251-5.7s.739-4.185 2.251-5.699c1.512-1.514 3.41-2.286 5.661-2.286 2.477 0 4.535.902 6.144 2.737l2.734-2.35C18.431 1.69 15.471.337 11.901.337c-3.313 0-6.144 1.094-8.46 3.317C1.159 5.875 0 8.647 0 11.962c0 3.316 1.158 6.086 3.442 8.307 2.315 2.19 5.146 3.286 8.46 3.286 3.505 0 6.722-1.514 8.909-4.09l-2.702-2.352c-1.576 1.868-3.667 2.803-6.208 2.803Zm136.486.238a.704.704 0 0 1 .708-.705.706.706 0 1 1-.709.705m-1.237-.733-1.822.493c-.01.16-.008.32.003.484l1.819.493c.14.038.214.192.156.324l-.749 1.729c.12.108.248.208.381.3l1.52-1.113a.24.24 0 0 1 .352.08l.886 1.661c.079-.012.159-.024.24-.042.079-.017.155-.042.233-.065l.077-1.88a.239.239 0 0 1 .18-.221.237.237 0 0 1 .101-.004l1.853.344a4.07 4.07 0 0 0 .213-.435l-1.427-1.234a.244.244 0 0 1-.082-.18.245.245 0 0 1 .082-.18l1.425-1.233a3.9 3.9 0 0 0-.207-.437l-1.857.345a.237.237 0 0 1-.281-.225l-.077-1.881a3.806 3.806 0 0 0-.472-.11l-.886 1.664a.24.24 0 0 1-.353.08l-1.523-1.114a3.66 3.66 0 0 0-.378.301l.749 1.73a.241.241 0 0 1-.156.325ZM40.748 17.695c-1.512 1.513-3.377 2.285-5.596 2.285-2.22 0-4.118-.772-5.629-2.285-1.512-1.514-2.252-3.414-2.252-5.7 0-2.254.74-4.154 2.252-5.7 1.511-1.545 3.409-2.318 5.628-2.318 2.22 0 4.085.773 5.597 2.319 1.512 1.545 2.284 3.445 2.284 5.698 0 2.254-.77 4.154-2.284 5.7ZM35.152.338c-3.313 0-6.11 1.127-8.395 3.381-2.284 2.221-3.441 4.992-3.441 8.275 0 3.285 1.157 6.055 3.441 8.276 2.284 2.222 5.082 3.349 8.395 3.349 3.313 0 6.144-1.127 8.427-3.349 2.285-2.221 3.442-4.992 3.442-8.275 0-3.285-1.158-6.055-3.473-8.275C41.264 1.464 38.465.338 35.152.338Zm35.942 15.871L66.076.96h-3.503l-5.018 15.249L52.187.96H48l7.718 22.08h3.624L64.32 7.853l4.947 15.187h3.656L80.64.96h-4.177l-5.37 15.249Zm22.07 3.251h-4.588v-6.272h4.556c2.097 0 3.604 1.33 3.604 3.104 0 1.806-1.508 3.168-3.572 3.168ZM88.576 4.54h3.639c1.703 0 2.916 1.11 2.916 2.599 0 1.615-1.213 2.724-2.95 2.724h-3.605V4.541Zm7.636 6.495c1.836-.665 2.917-2.312 2.917-4.435 0-1.616-.622-2.978-1.869-4.022C96.048 1.498 94.54.96 92.74.96h-8.26v22.08h9.373c2 0 3.638-.602 4.948-1.837 1.344-1.236 1.999-2.82 1.999-4.69 0-2.819-1.671-4.972-4.589-5.479l.001.001Zm25.098 6.66c-1.512 1.513-3.377 2.285-5.596 2.285-2.22 0-4.118-.772-5.629-2.285-1.512-1.514-2.252-3.414-2.252-5.7 0-2.254.74-4.154 2.252-5.7 1.511-1.545 3.409-2.318 5.629-2.318 2.219 0 4.084.773 5.596 2.319 1.512 1.545 2.284 3.445 2.284 5.698 0 2.254-.771 4.154-2.284 5.7ZM115.715.338c-3.314 0-6.112 1.127-8.397 3.381-2.283 2.221-3.441 4.992-3.441 8.275 0 3.285 1.158 6.055 3.441 8.276 2.284 2.222 5.083 3.349 8.396 3.349 3.313 0 6.144-1.127 8.428-3.349 2.283-2.221 3.441-4.992 3.441-8.275 0-3.285-1.158-6.055-3.475-8.275-2.283-2.256-5.08-3.382-8.393-3.382Zm29.547.622-6.564 10.886L132.108.96h-4.428l8.765 14.386-4.641 7.694h4.505l4.448-7.302L149.76.96h-4.498Z"/></g><defs><clipPath id="aa"><path d="M0 0h152.64v24H0z"/></clipPath></defs></svg></svg>